<svg width="24" height="25" viewBox="0 0 24 25" fill="none" xmlns="http://www.w3.org/2000/svg">
<path d="M18.2491 13.2752C18.0478 12.9098 18.3038 12.5379 18.7416 12.0776C19.4354 11.3468 20.1903 9.65183 19.4885 7.93111C19.4933 7.92145 19.3501 7.63172 19.3549 7.62206L19.0668 7.60757C18.975 7.5947 15.8056 7.58826 12.633 7.58826C9.46036 7.58826 6.29096 7.5947 6.19921 7.60757C6.19921 7.60757 5.77265 7.92145 5.77587 7.93111C5.07567 9.65183 5.82899 11.3452 6.52275 12.0776C6.95896 12.5379 7.2149 12.9098 7.0153 13.2752C6.82053 13.6309 6.24106 13.6824 6.24106 13.6824C6.24106 13.6824 6.37466 14.0462 6.69659 14.2426C6.99437 14.4244 7.36138 14.4663 7.61409 14.4727C7.61409 14.4727 8.60403 15.8425 11.1923 15.8425H14.0736C16.6619 15.8425 17.6519 14.4727 17.6519 14.4727C17.9046 14.4663 18.2716 14.4244 18.5694 14.2426C18.8913 14.0462 19.0249 13.6824 19.0249 13.6824C19.0249 13.6824 18.4438 13.6309 18.2491 13.2752Z" fill="#312D2D"/>
<path d="M12.6298 15.8425V14.323L17.2285 13.9592L17.647 14.4743C17.647 14.4743 16.6571 15.8441 14.0688 15.8441L12.6298 15.8425Z" fill="url(#paint0_radial)"/>
<path d="M17.6374 13.8095C16.9484 12.7632 18.476 12.3721 18.476 12.3721L18.4776 12.3737C18.212 12.7037 18.0913 12.9918 18.2474 13.2767C18.4422 13.6324 19.0217 13.6839 19.0217 13.6839C19.0217 13.6839 18.2329 14.3857 17.6374 13.8095Z" fill="url(#paint1_radial)"/>
<path d="M19.4916 7.93099C20.1757 9.59698 19.4562 11.3129 18.7817 12.0372C18.69 12.137 18.2972 12.5217 18.2071 12.8292C18.2071 12.8292 16.6715 10.6867 16.2127 9.42797C16.121 9.17364 16.0357 8.91288 16.0244 8.64246C16.0164 8.43964 16.0469 8.19819 16.1644 8.02596C16.3077 7.8151 19.4095 7.75232 19.4095 7.75232C19.4095 7.75554 19.4916 7.93099 19.4916 7.93099Z" fill="url(#paint2_radial)"/>
<path d="M5.77581 7.93099C5.09171 9.59698 5.81122 11.3129 6.48566 12.0372C6.57902 12.137 6.97017 12.5217 7.06031 12.8292C7.06031 12.8292 8.59592 10.6867 9.05467 9.42797C9.14803 9.17364 9.23173 8.91288 9.243 8.64246C9.25104 8.43964 9.22046 8.19819 9.10296 8.02596C8.9597 7.8151 8.79229 7.87143 8.54924 7.87143C8.08566 7.87143 6.05589 7.75232 5.89814 7.75232C5.89814 7.75554 5.77581 7.93099 5.77581 7.93099Z" fill="url(#paint3_radial)"/>
<path d="M12.6362 15.8425V14.323L8.03741 13.9576L7.6189 14.4727C7.6189 14.4727 8.60883 15.8425 11.1971 15.8425H12.6362Z" fill="url(#paint4_radial)"/>
<path d="M7.63015 13.8095C8.31908 12.7632 6.79152 12.3721 6.79152 12.3721L6.78991 12.3737C7.0555 12.7037 7.17623 12.9918 7.02009 13.2767C6.82532 13.6324 6.24585 13.6839 6.24585 13.6839C6.24585 13.6839 7.03458 14.3857 7.63015 13.8095Z" fill="url(#paint5_radial)"/>
<path d="M21 23.5189C20.9581 22.3455 19.6559 17.7274 18.4245 17.0803C16.8068 16.2288 14.9524 15.7927 12.6297 15.7927C11.1971 15.7927 10.0575 16.2144 8.71022 15.7911C7.99553 15.5658 7.50137 15.1972 7.26636 14.4744L7.05389 13.8225L3.1698 14.7883C3.1698 14.7883 4.49301 21.531 4.90348 23.5189H21Z" fill="white"/>
<path d="M12.6298 14.8397H11.1682V16.4462C11.1682 17.1721 11.7638 17.7612 12.4978 17.7612H12.7634C13.4974 17.7612 14.0929 17.1721 14.0929 16.4462V14.8397H12.6298Z" fill="#D6A66B"/>
<path d="M17.0289 8.45752H8.23053C7.28244 8.45752 6.50659 9.28488 6.50659 10.2941C6.50659 11.3034 7.28244 12.1307 8.23053 12.1307H17.0273C17.9754 12.1307 18.7512 11.3034 18.7512 10.2941C18.7512 9.28488 17.977 8.45752 17.0289 8.45752Z" fill="#EDC391"/>
<path d="M12.6297 2.12195C9.82889 2.12195 7.23413 5.11751 7.23413 9.42976C7.23413 13.7179 9.90776 15.8378 12.6297 15.8378C15.3516 15.8378 18.0252 13.7163 18.0252 9.42815C18.0252 5.11751 15.4305 2.12195 12.6297 2.12195Z" fill="#EDBC81"/>
<path d="M9.9835 10.6272C10.4218 10.6272 10.7771 10.2597 10.7771 9.80627C10.7771 9.35289 10.4218 8.98535 9.9835 8.98535C9.54523 8.98535 9.18994 9.35289 9.18994 9.80627C9.18994 10.2597 9.54523 10.6272 9.9835 10.6272Z" fill="#312D2D"/>
<path d="M15.276 10.6272C15.7142 10.6272 16.0695 10.2597 16.0695 9.80627C16.0695 9.35289 15.7142 8.98535 15.276 8.98535C14.8377 8.98535 14.4824 9.35289 14.4824 9.80627C14.4824 10.2597 14.8377 10.6272 15.276 10.6272Z" fill="#312D2D"/>
<path d="M11.1795 8.35926C11.0298 8.16127 10.6854 7.87476 10.0158 7.87476C9.34615 7.87476 9.00007 8.16288 8.85198 8.35926C8.78599 8.44618 8.80208 8.54759 8.84876 8.60876C8.89061 8.66509 9.01617 8.71821 9.1546 8.67153C9.29303 8.62485 9.56345 8.48481 10.0158 8.48159C10.4681 8.48481 10.7385 8.62485 10.8769 8.67153C11.0154 8.71821 11.1409 8.6667 11.1828 8.60876C11.2278 8.54759 11.2439 8.44618 11.1795 8.35926Z" fill="#454140"/>
<path d="M16.4093 8.35926C16.2596 8.16127 15.9151 7.87476 15.2455 7.87476C14.5759 7.87476 14.2298 8.16288 14.0817 8.35926C14.0157 8.44618 14.0318 8.54759 14.0785 8.60876C14.1204 8.66509 14.2459 8.71821 14.3843 8.67153C14.5228 8.62485 14.7932 8.48481 15.2455 8.48159C15.6978 8.48481 15.9682 8.62485 16.1067 8.67153C16.2451 8.71821 16.3706 8.6667 16.4125 8.60876C16.4592 8.54759 16.4753 8.44618 16.4093 8.35926Z" fill="#454140"/>
<path d="M13.9851 12.5958C13.4732 12.9001 11.7912 12.9001 11.2793 12.5958C10.9847 12.4204 10.6837 12.6892 10.8061 12.9564C10.9268 13.2188 11.8427 13.8288 12.6362 13.8288C13.4298 13.8288 14.3344 13.2188 14.4551 12.9564C14.5759 12.6892 14.2797 12.4204 13.9851 12.5958Z" fill="#444444"/>
<path d="M13.251 11.2953C13.2333 11.2889 13.2172 11.2841 13.1995 11.2825H12.0598C12.0421 11.2841 12.0244 11.2889 12.0083 11.2953C11.9053 11.3372 11.849 11.4434 11.8973 11.5577C11.9456 11.672 12.1725 11.9907 12.6297 11.9907C13.0868 11.9907 13.3138 11.6704 13.362 11.5577C13.4103 11.4434 13.354 11.3372 13.251 11.2953Z" fill="#CE916F"/>
<path d="M19.1985 4.48165C18.8154 3.88769 17.9494 3.09413 17.159 3.04102C17.0448 2.28287 16.2431 1.64062 15.4592 1.39273C13.3426 0.719899 11.9438 1.47322 11.1921 1.87885C11.0359 1.96255 10.0267 2.51627 9.33453 2.11869C8.90153 1.8708 8.92085 1.19797 8.92085 1.19797C8.92085 1.19797 7.53977 1.71949 7.98403 3.17301C7.51241 3.19232 6.89108 3.39031 6.55144 4.05188C6.14742 4.83738 6.27619 5.49573 6.38243 5.81122C5.97036 6.15408 5.44722 6.88647 5.78203 7.83455C6.03314 8.54924 7.07941 8.87761 7.07941 8.87761C6.98283 10.1637 7.20979 10.9557 7.33212 11.276C7.35305 11.3323 7.43353 11.3275 7.44963 11.2695C7.61864 10.6321 8.20134 8.41242 8.15305 8.02449C8.15305 8.02449 9.98483 7.66393 11.749 6.38426C12.108 6.1235 12.4959 5.90136 12.908 5.73879C15.11 4.86958 15.543 6.35207 15.543 6.35207C15.543 6.35207 17.0641 6.06072 17.4858 8.16292C17.6435 8.95004 17.7401 10.2104 17.8222 11.0925C17.8287 11.1553 17.9124 11.1681 17.9381 11.1102C18.0975 10.7609 18.4146 10.0655 18.4999 9.35889C18.5305 9.1094 19.2081 8.78103 19.5156 7.71061C19.9276 6.28124 19.4753 4.90982 19.1985 4.48165Z" fill="#312D2D"/>
<path d="M18.4954 9.36214C18.5259 9.11265 19.2036 8.78428 19.511 7.71386C19.5432 7.59958 19.5722 7.48368 19.598 7.36779C19.8555 6.0688 19.4531 4.87605 19.1988 4.48168C18.8446 3.93279 18.0768 3.21328 17.3412 3.0668C17.2769 3.05875 17.2141 3.0507 17.1545 3.04749C17.1545 3.04749 17.2012 3.39195 17.0563 3.6672C16.8696 4.02293 16.4994 4.10825 16.4994 4.10825C18.3939 6.03178 18.2298 7.64143 18.4954 9.36214Z" fill="url(#paint6_radial)"/>
<path d="M11.6624 1.63568C11.4853 1.72099 11.3276 1.80469 11.1924 1.87874C11.0362 1.96244 10.027 2.51616 9.33481 2.11857C8.90826 1.87391 8.91952 1.222 8.92113 1.19946C8.71832 1.45057 8.08894 3.25177 9.83863 3.37088C10.5936 3.42239 11.07 2.76565 11.3549 2.20871C11.4563 2.00912 11.6189 1.71455 11.6624 1.63568Z" fill="url(#paint7_radial)"/>
<path d="M15.2422 1.32679C16.4157 1.6455 16.979 2.24268 17.1577 3.04267C17.2092 3.27768 17.2398 5.4652 13.0982 2.97829C11.5577 2.05435 11.9924 1.47487 12.1759 1.40888C12.8905 1.15294 13.9272 0.971052 15.2422 1.32679Z" fill="url(#paint8_radial)"/>
<path d="M8.91458 1.19951C8.91297 1.20112 8.90975 1.20112 8.90492 1.20273H8.90331C8.75201 1.2655 7.56569 1.80957 7.98259 3.17133L9.23168 3.37254C8.14195 2.25061 8.91941 1.19629 8.91941 1.19629C8.91941 1.19629 8.9178 1.19951 8.91458 1.19951Z" fill="url(#paint9_radial)"/>
<path d="M8.75539 3.29692L7.98437 3.17297C7.95379 3.17297 7.85077 3.18263 7.79443 3.19068C7.35661 3.25185 6.83991 3.47559 6.55178 4.05184C6.24273 4.67156 6.24112 5.20435 6.31677 5.55848C6.3377 5.67759 6.38438 5.81119 6.38438 5.81119C6.38438 5.81119 6.77392 5.44902 7.68659 5.42487L8.75539 3.29692Z" fill="url(#paint10_radial)"/>
<path d="M6.34729 5.8417C5.95936 6.17973 5.433 6.93305 5.79678 7.86664C6.07043 8.57167 7.0829 8.8775 7.0829 8.8775C7.0829 8.88072 7.28571 8.94028 7.39034 8.94028L7.68812 5.4248C7.2004 5.4248 6.73038 5.57128 6.42294 5.78054C6.42294 5.78537 6.34407 5.83527 6.34729 5.8417Z" fill="url(#paint11_radial)"/>
<path d="M9.46565 5.43131L9.46552 5.43132C9.37994 5.43243 9.2717 5.46609 9.15102 5.52432C9.03099 5.58224 8.90147 5.66306 8.77414 5.75537C8.51917 5.9402 8.27613 6.16875 8.13841 6.34603L8.13837 6.34609C8.05249 6.45616 7.97158 6.58869 7.88528 6.73003C7.85814 6.77449 7.83046 6.81982 7.80193 6.86559C7.68353 7.05558 7.55149 7.25128 7.38543 7.41406C7.21899 7.57721 7.01795 7.70775 6.76164 7.76695C6.50553 7.82611 6.19693 7.81343 5.81622 7.69467C5.71536 7.66388 5.49872 7.61889 5.25701 7.56868C5.18083 7.55286 5.10216 7.53652 5.02385 7.51995C4.86121 7.48553 4.70071 7.4502 4.56914 7.41668C4.50337 7.39992 4.44447 7.38352 4.39596 7.36782C4.34808 7.35231 4.30828 7.33685 4.28197 7.32153M9.46565 5.43131L5.3541 1.83715C5.30841 1.73826 5.22898 1.6673 5.10759 1.63674L5.10749 1.63671C4.95898 1.5998 4.82751 1.63179 4.72893 1.71452C4.63123 1.79652 4.56882 1.92575 4.55111 2.07899L4.28568 3.82763L4.28566 3.82779L4.28565 3.82784L4.28555 3.82839L4.28515 3.8308L4.28356 3.84024L4.27744 3.87648L4.25503 4.00934L4.18167 4.44387C4.12473 4.78086 4.05794 5.17557 4.01851 5.40653C3.91245 6.01781 3.94292 6.47453 4.01668 6.78877C4.05354 6.94583 4.10129 7.06756 4.14841 7.15525C4.19465 7.2413 4.24251 7.29874 4.28197 7.32153M9.46565 5.43131C9.56531 5.42959 9.64229 5.39895 9.69947 5.3497C9.75623 5.30079 9.79124 5.23547 9.8109 5.16765C9.83056 5.09987 9.83531 5.0283 9.83063 4.96465C9.82599 4.9016 9.81191 4.84383 9.79179 4.80387L9.46565 5.43131ZM4.28197 7.32153C4.28199 7.32155 4.28201 7.32156 4.28203 7.32157L4.29812 7.29368L4.28191 7.3215C4.28193 7.32151 4.28195 7.32152 4.28197 7.32153ZM5.52626 3.17252C5.5183 3.20888 5.51127 3.24097 5.50536 3.26795L5.52626 3.17252ZM5.52626 3.17252C5.62231 2.73383 5.85438 1.67386 5.90938 1.47319L5.52626 3.17252ZM5.40228 2.18984C5.40228 2.18983 5.40228 2.18982 5.40228 2.18981L6.39871 1.07882L6.40564 1.04738C6.40561 1.04738 6.40559 1.04737 6.40556 1.04737C6.25342 1.01387 6.13764 1.05126 6.05149 1.13385C5.96738 1.21449 5.91431 1.33547 5.87837 1.46455L5.87833 1.46468C5.82308 1.66626 5.59088 2.72683 5.49488 3.16532C5.48688 3.20183 5.47984 3.23403 5.47391 3.26106L5.47387 3.26127C5.46629 3.29696 5.43169 3.32002 5.3955 3.31359C5.36216 3.30679 5.33956 3.27801 5.33956 3.24702V3.24154L5.40228 2.18984ZM6.51908 2.68561C6.60098 2.25297 6.68863 1.79177 6.71195 1.67599L9.04498 4.55728L9.04077 4.52536C9.04076 4.52536 9.04074 4.52537 9.04072 4.52537C8.85509 4.54985 8.70669 4.64343 8.57785 4.74597C8.53107 4.7832 8.48614 4.82224 8.44303 4.85969C8.42699 4.87362 8.4112 4.88734 8.39566 4.90067C8.33776 4.95031 8.28291 4.99489 8.22802 5.0289L8.22801 5.02889L8.22712 5.02948L8.21264 5.03914L8.21261 5.0391L8.21118 5.04017C8.20411 5.04548 8.19737 5.049 8.18834 5.05372C8.18437 5.0558 8.17996 5.05811 8.17488 5.0609C8.16102 5.06631 8.15007 5.0691 8.14058 5.06915C8.12982 5.06894 8.11926 5.06616 8.10979 5.06104C8.10023 5.05588 8.09206 5.0485 8.08596 5.03951C8.07987 5.03053 8.07602 5.02021 8.07476 5.00942C8.0735 4.9987 8.07483 4.98783 8.07864 4.97773C8.07867 4.97768 8.0787 4.97762 8.07873 4.97757L8.0808 4.97835V4.97417L8.08091 4.97423L8.08237 4.96987C8.08341 4.96675 8.08461 4.96353 8.08608 4.95958C8.08657 4.95827 8.08709 4.95688 8.08765 4.95538C8.08958 4.95017 8.09178 4.94406 8.09366 4.93766C8.20817 4.63282 8.4457 3.98774 8.65468 3.41868C8.75931 3.13377 8.8568 2.86786 8.92812 2.67319L9.01312 2.44113L9.03645 2.3774L9.04255 2.36076L9.0441 2.35651L9.04443 2.3556L9.0445 2.35543L9.04453 2.35534C9.0998 2.21199 9.10656 2.06299 9.06025 1.93898C9.01355 1.81393 8.9136 1.71672 8.76176 1.67866C8.51699 1.6148 8.305 1.79354 8.2119 2.03097C8.21186 2.03107 8.21183 2.03117 8.21179 2.03126L7.45548 3.85764L7.45541 3.85761L7.45469 3.85978C7.45206 3.86766 7.44361 3.87126 7.43773 3.86959L7.43809 3.86835H7.43437C7.42963 3.86485 7.42544 3.85712 7.42793 3.84718L7.9895 1.62177C7.98953 1.62166 7.98956 1.62155 7.98959 1.62144C8.05711 1.37569 8.01267 1.11242 7.78183 1.00766L7.78183 1.00766L7.78168 1.00759C7.64057 0.944395 7.50248 0.959796 7.38968 1.03041C7.27788 1.10039 7.19289 1.22316 7.15169 1.37248L6.48864 3.55315L6.48862 3.55314L6.48838 3.55404C6.47782 3.59275 6.44158 3.61375 6.41063 3.60677L6.41081 3.60597H6.40617C6.37383 3.59628 6.35302 3.56237 6.36107 3.52215L6.36113 3.5218L6.3295 3.51583L6.36114 3.52178L6.36115 3.52172L6.36119 3.5215L6.36136 3.52062L6.36201 3.51716L6.36456 3.50361L6.3743 3.45197L6.4094 3.26592L6.51908 2.68561ZM8.07722 4.98008C8.07716 4.98017 8.07721 4.98007 8.07737 4.97981L8.07732 4.9799L8.07722 4.98008Z" fill="url(#paint12_linear)" stroke="#D6A66B" stroke-width="0.064386"/>
<path d="M7.0185 13.7098C6.94123 13.3975 6.91226 13.0756 6.93157 12.7552L7.03298 8.05829C7.04103 7.92952 6.97343 7.81362 6.86719 7.75567C6.82856 7.73153 6.7851 7.71382 6.73842 7.70738L4.1678 7.11181C4.00201 7.09089 3.84748 7.20034 3.81207 7.36292C3.81207 7.36292 3.14729 12.34 3.099 12.7359C3.05071 13.1319 2.92837 13.61 3.05715 14.2136L3.17304 14.785L7.32433 14.674L7.0185 13.7098Z" fill="white"/>
<path d="M8.09856 5.09165C7.59635 5.11419 7.09414 5.17374 6.65792 5.39749C6.43901 5.51177 6.24585 5.66952 6.08167 5.85785C5.94968 6.00754 5.84344 6.17656 5.74686 6.35845C5.74364 6.3665 5.73559 6.37132 5.72915 6.37132C5.71789 6.37132 5.71145 6.36328 5.70984 6.35362V6.35201C5.70984 6.34718 5.85471 5.94799 5.97382 5.77414C6.12352 5.55201 6.33277 5.3669 6.571 5.23491C6.80762 5.10292 7.06677 5.01761 7.32915 4.97415C7.57381 4.93069 7.82009 4.91781 8.06315 4.92747C8.05993 4.93874 8.0551 4.95 8.05188 4.95966C8.05027 4.96288 8.04866 4.96449 8.04866 4.9661C8.02935 5.01922 8.0551 5.07073 8.09856 5.09165Z" fill="#D6A66B"/>
<path d="M14.0553 17.5406L13.1197 18.6196L14.0327 22.9203C14.0628 23.0008 14.083 23.0574 14.093 23.0901C14.1031 23.1228 14.1043 23.1593 14.0968 23.1995C14.0892 23.2398 14.0679 23.2775 14.0327 23.3127L12.8556 24.7236C12.8053 24.779 12.7412 24.8066 12.6632 24.8066C12.5852 24.8066 12.5186 24.779 12.4633 24.7236L11.2937 23.3127C11.2434 23.2473 11.2195 23.1932 11.2221 23.1505C11.2246 23.1077 11.2485 23.031 11.2937 22.9203L12.2067 18.612L11.2786 17.5406C11.2133 17.4802 11.1969 17.3884 11.2296 17.2652C11.2623 17.1419 11.334 17.0803 11.4446 17.0803H13.8968C14.0075 17.0803 14.0767 17.1419 14.1043 17.2652C14.132 17.3884 14.1157 17.4802 14.0553 17.5406Z" fill="#AC8302"/>
<defs>
<radialGradient id="paint0_radial" cx="0" cy="0" r="1" gradientUnits="userSpaceOnUse" gradientTransform="translate(14.9789 13.6463) scale(3.76964 1.85165)">
<stop offset="0.728" stop-color="#454140" stop-opacity="0"/>
<stop offset="1" stop-color="#454140"/>
</radialGradient>
<radialGradient id="paint1_radial" cx="0" cy="0" r="1" gradientUnits="userSpaceOnUse" gradientTransform="translate(18.6922 13.0854) rotate(154.924) scale(1.11398 0.826417)">
<stop offset="0.663" stop-color="#454140"/>
<stop offset="1" stop-color="#454140" stop-opacity="0"/>
</radialGradient>
<radialGradient id="paint2_radial" cx="0" cy="0" r="1" gradientUnits="userSpaceOnUse" gradientTransform="translate(15.805 9.9346) rotate(-94.2783) scale(4.89311 4.07809)">
<stop offset="0.725" stop-color="#454140" stop-opacity="0"/>
<stop offset="1" stop-color="#454140"/>
</radialGradient>
<radialGradient id="paint3_radial" cx="0" cy="0" r="1" gradientUnits="userSpaceOnUse" gradientTransform="translate(9.46193 9.93452) rotate(-85.7217) scale(4.89311 4.07809)">
<stop offset="0.725" stop-color="#454140" stop-opacity="0"/>
<stop offset="1" stop-color="#454140"/>
</radialGradient>
<radialGradient id="paint4_radial" cx="0" cy="0" r="1" gradientUnits="userSpaceOnUse" gradientTransform="translate(10.2877 13.6463) rotate(180) scale(3.76964 1.85165)">
<stop offset="0.728" stop-color="#454140" stop-opacity="0"/>
<stop offset="1" stop-color="#454140"/>
</radialGradient>
<radialGradient id="paint5_radial" cx="0" cy="0" r="1" gradientUnits="userSpaceOnUse" gradientTransform="translate(6.57492 13.0857) rotate(25.0761) scale(1.11398 0.826417)">
<stop offset="0.663" stop-color="#454140"/>
<stop offset="1" stop-color="#454140" stop-opacity="0"/>
</radialGradient>
<radialGradient id="paint6_radial" cx="0" cy="0" r="1" gradientUnits="userSpaceOnUse" gradientTransform="translate(15.5989 7.36234) rotate(72.9338) scale(5.69507 4.27574)">
<stop offset="0.699" stop-color="#454140" stop-opacity="0"/>
<stop offset="1" stop-color="#454140"/>
</radialGradient>
<radialGradient id="paint7_radial" cx="0" cy="0" r="1" gradientUnits="userSpaceOnUse" gradientTransform="translate(10.1142 1.12324) rotate(28.3598) scale(1.49248 1.79262)">
<stop offset="0.58" stop-color="#454140"/>
<stop offset="1" stop-color="#454140" stop-opacity="0"/>
</radialGradient>
<radialGradient id="paint8_radial" cx="0" cy="0" r="1" gradientUnits="userSpaceOnUse" gradientTransform="translate(13.4287 3.8504) rotate(-157.095) scale(4.67299 2.65392)">
<stop offset="0.699" stop-color="#454140" stop-opacity="0"/>
<stop offset="1" stop-color="#454140"/>
</radialGradient>
<radialGradient id="paint9_radial" cx="0" cy="0" r="1" gradientUnits="userSpaceOnUse" gradientTransform="translate(9.48665 2.49212) scale(1.38028 1.68435)">
<stop offset="0.702" stop-color="#454140" stop-opacity="0"/>
<stop offset="1" stop-color="#454140"/>
</radialGradient>
<radialGradient id="paint10_radial" cx="0" cy="0" r="1" gradientUnits="userSpaceOnUse" gradientTransform="translate(9.25552 4.92317) rotate(-164.908) scale(2.57724 2.42755)">
<stop offset="0.66" stop-color="#454140" stop-opacity="0"/>
<stop offset="1" stop-color="#454140"/>
</radialGradient>
<radialGradient id="paint11_radial" cx="0" cy="0" r="1" gradientUnits="userSpaceOnUse" gradientTransform="translate(8.59852 7.41703) rotate(7.83526) scale(2.71157 3.81933)">
<stop offset="0.598" stop-color="#454140" stop-opacity="0"/>
<stop offset="1" stop-color="#454140"/>
</radialGradient>
<linearGradient id="paint12_linear" x1="7.56909" y1="1.9424" x2="6.28733" y2="7.46334" gradientUnits="userSpaceOnUse">
<stop offset="0.5" stop-color="#F2BF84"/>
<stop offset="1" stop-color="#DBA361"/>
</linearGradient>
</defs>
</svg>
