<svg width="24" height="24" viewBox="0 0 24 24" fill="none" xmlns="http://www.w3.org/2000/svg">
<g clip-path="url(#clip0)">
<path d="M14.5986 21.9617V22.5696C14.5986 22.623 14.5958 22.6764 14.59 22.7284C14.5109 23.4436 13.9044 24.0001 13.1681 24.0001H10.9748C10.2386 24.0001 9.63205 23.4436 9.55289 22.7284C9.54717 22.6764 9.54431 22.623 9.54431 22.5696V21.9617C9.73361 22.0461 9.94341 22.0928 10.1642 22.0928H13.9787C14.1995 22.0928 14.4093 22.0461 14.5986 21.9617Z" fill="#50758D"/>
<path d="M12.0001 3.12618C11.8025 3.12618 11.6425 2.96612 11.6425 2.76857V0.357616C11.6425 0.160069 11.8025 0 12.0001 0C12.1976 0 12.3577 0.160069 12.3577 0.357616V2.76857C12.3577 2.96612 12.1976 3.12618 12.0001 3.12618Z" fill="#FFE7C9"/>
<path d="M5.58079 5.78505C5.48924 5.78505 5.39774 5.75015 5.32789 5.68034L3.62306 3.97547C3.4834 3.83576 3.4834 3.60936 3.62306 3.4697C3.76281 3.33004 3.98921 3.33013 4.12882 3.4697L5.83365 5.17458C5.97331 5.31429 5.97331 5.54068 5.83365 5.68034C5.7638 5.75015 5.67225 5.78505 5.58079 5.78505Z" fill="#FFE7C9"/>
<path d="M2.92181 12.2042H0.510814C0.313267 12.2042 0.153198 12.0442 0.153198 11.8466C0.153198 11.6491 0.313267 11.489 0.510814 11.489H2.92177C3.11931 11.489 3.27938 11.6491 3.27938 11.8466C3.27938 12.0442 3.11931 12.2042 2.92181 12.2042Z" fill="#FFE7C9"/>
<path d="M3.87596 20.3285C3.78446 20.3285 3.69291 20.2936 3.62306 20.2238C3.4834 20.084 3.4834 19.8577 3.62306 19.718L5.32789 18.0132C5.4676 17.8735 5.69399 17.8735 5.83365 18.0132C5.97331 18.1529 5.97331 18.3793 5.83365 18.5189L4.12882 20.2238C4.05897 20.2936 3.96747 20.3285 3.87596 20.3285Z" fill="#FFE7C9"/>
<path d="M20.124 20.3285C20.0325 20.3285 19.9409 20.2936 19.8711 20.2238L18.1663 18.5189C18.0266 18.3792 18.0266 18.1528 18.1663 18.0132C18.306 17.8735 18.5324 17.8735 18.672 18.0132L20.3769 19.718C20.5165 19.8577 20.5165 20.0841 20.3769 20.2238C20.3071 20.2936 20.2155 20.3285 20.124 20.3285Z" fill="#FFE7C9"/>
<path d="M23.4892 12.2042H21.0782C20.8807 12.2042 20.7206 12.0442 20.7206 11.8466C20.7206 11.6491 20.8807 11.489 21.0782 11.489H23.4892C23.6867 11.489 23.8468 11.6491 23.8468 11.8466C23.8468 12.0442 23.6867 12.2042 23.4892 12.2042Z" fill="#FFE7C9"/>
<path d="M18.4192 5.78505C18.3277 5.78505 18.2361 5.75015 18.1663 5.68034C18.0266 5.54063 18.0266 5.31424 18.1663 5.17458L19.8711 3.4697C20.0108 3.33009 20.2372 3.33009 20.3769 3.4697C20.5165 3.60941 20.5165 3.8358 20.3769 3.97547L18.672 5.68034C18.6022 5.75015 18.5107 5.78505 18.4192 5.78505Z" fill="#FFE7C9"/>
<path d="M12.0715 21.6157C12.0715 21.6157 9.73361 22.0458 9.54431 21.9614V22.5694C9.54431 22.6228 9.54717 22.6762 9.55289 22.7281C9.63205 23.4434 10.2386 23.9998 10.9748 23.9998H11.5946C10.9726 23.9998 10.4433 23.6026 10.2463 23.048C10.213 22.9543 10.2812 22.8555 10.3808 22.8555H13.9787C14.1962 22.8555 14.4031 22.8102 14.59 22.7281C14.5958 22.6762 14.5986 22.6228 14.5986 22.5694V21.9614C14.4093 22.0458 12.0715 21.6157 12.0715 21.6157Z" fill="#2B597F"/>
<path d="M15.5046 20.5668C15.5046 21.1886 15.1322 21.7241 14.5987 21.9615C14.4094 22.0459 14.1996 22.0926 13.9788 22.0926H10.1642C9.94346 22.0926 9.73366 22.0459 9.54436 21.9615C9.0108 21.7241 8.6384 21.1886 8.6384 20.5668C8.6384 20.5668 8.61599 18.3382 8.61169 18.28V18.2781L12.0715 17.8013L15.4918 18.2781L15.5046 20.5668Z" fill="#50758D"/>
<path d="M10.9748 22.0929H10.1642C9.94346 22.0929 9.73366 22.0462 9.54436 21.9618C9.01079 21.7243 8.6384 21.1888 8.6384 20.5671C8.6384 20.5671 8.61599 18.3384 8.61169 18.2802V18.2783H9.42229V18.2802C9.42658 18.3384 9.44899 20.5671 9.44899 20.5671C9.44899 21.1888 9.82139 21.7243 10.355 21.9618C10.5442 22.0462 10.754 22.0929 10.9748 22.0929Z" fill="#2B597F"/>
<path d="M15.5047 20.5429H14.2888C14.0914 20.5429 13.9312 20.3826 13.9312 20.1852C13.9312 19.9878 14.0914 19.8276 14.2888 19.8276H15.5008L15.5028 20.1852L15.5047 20.5429Z" fill="#2B597F"/>
<path d="M12.9775 20.1852C12.9775 20.3826 12.8173 20.5429 12.6199 20.5429H8.63799L8.62988 19.8276H12.6199C12.8173 19.8276 12.9775 19.9878 12.9775 20.1852Z" fill="#2B597F"/>
<path d="M12.0062 4.31558C12.0062 4.31558 12.0061 4.31558 12.0061 4.31558L12.0062 4.31544C8.32367 4.25879 5.2268 7.46837 5.29304 11.1241C5.29304 12.989 6.03163 14.6793 7.22845 15.909C7.93367 16.6343 8.544 17.3047 8.61171 18.2783L15.4918 18.2898C15.5304 17.2875 16.1002 16.6104 16.8102 15.869C17.9841 14.6431 18.707 12.9694 18.707 11.1241C18.7069 7.36581 15.7078 4.31892 12.0062 4.31558Z" fill="#FFF3B9"/>
<path d="M15.4918 18.288V18.2894L8.61171 18.278C8.54401 17.3043 7.93367 16.6339 7.22845 15.9086C6.03163 14.6789 5.29304 12.9886 5.29304 11.1237C5.22676 7.46794 8.32371 4.25845 12.0062 4.31519C12.1249 4.31519 12.2432 4.31853 12.3605 4.32473C8.88207 4.52643 6.04022 7.62004 6.10363 11.1237C6.10363 12.9886 6.84223 14.6789 8.03905 15.9086C8.74427 16.6339 9.3546 17.3043 9.42231 18.278L15.4918 18.288Z" fill="#FAA515"/>
<path d="M12.1684 14.5318C12.0257 14.7156 11.8089 14.8268 11.5763 14.8354C11.5665 14.8358 11.5567 14.836 11.5469 14.836C11.325 14.836 11.1128 14.7421 10.9633 14.5768L8.72223 12.0973C8.4309 11.775 8.45602 11.2775 8.7784 10.9861C9.10073 10.6947 9.59815 10.7199 9.88964 11.0422L11.5013 12.8253L14.0726 9.51374C14.3391 9.17057 14.8334 9.10835 15.1765 9.37484C15.5198 9.64134 15.5819 10.1356 15.3154 10.4788L12.1684 14.5318Z" fill="#F1CA06"/>
</g>
<defs>
<clipPath id="clip0">
<rect width="24" height="24" fill="white"/>
</clipPath>
</defs>
</svg>
