<svg width="24" height="24" viewBox="0 0 24 24" fill="none" xmlns="http://www.w3.org/2000/svg">
<path d="M21.1742 11.5778C21.1741 11.9859 21.1505 12.3938 21.1036 12.7993C20.789 15.5279 19.4262 18.0274 17.3031 19.7699C15.18 21.5125 12.4627 22.3617 9.72516 22.1382C6.98761 21.9146 4.44408 20.6359 2.63174 18.5721C0.819395 16.5082 -0.11988 13.8207 0.0122719 11.0773C0.144424 8.33379 1.33766 5.74906 3.33998 3.86895C5.34231 1.98883 7.99696 0.960512 10.7433 1.00116C13.4897 1.04181 16.1127 2.14824 18.0585 4.0868C20.0043 6.02535 21.1206 8.64426 21.1715 11.3904C21.1742 11.4475 21.1742 11.5153 21.1742 11.5778Z" fill="#E6E6E6"/>
<path d="M10.6092 19.0372C14.7289 19.0372 18.0687 15.6975 18.0687 11.5777C18.0687 7.45796 14.7289 4.11823 10.6092 4.11823C6.48939 4.11823 3.14966 7.45796 3.14966 11.5777C3.14966 15.6975 6.48939 19.0372 10.6092 19.0372Z" fill="#F3BF1E"/>
<path d="M10.6092 16.1247C13.1203 16.1247 15.156 14.089 15.156 11.5778C15.156 9.06669 13.1203 7.03101 10.6092 7.03101C8.09806 7.03101 6.06238 9.06669 6.06238 11.5778C6.06238 14.089 8.09806 16.1247 10.6092 16.1247Z" fill="#E6E6E6"/>
<path d="M10.6092 13.7711C11.8206 13.7711 12.8026 12.7891 12.8026 11.5778C12.8026 10.3664 11.8206 9.38446 10.6092 9.38446C9.39788 9.38446 8.41589 10.3664 8.41589 11.5778C8.41589 12.7891 9.39788 13.7711 10.6092 13.7711Z" fill="#F3BF1E"/>
<path d="M21.8935 4.97059L18.5112 6.63188L18.6768 4.61228L22.0591 2.95099L21.8935 4.97059Z" fill="#FFD200"/>
<path d="M22.3007 5.79858L18.9185 7.45987L20.6177 8.56468L24 6.90068L22.3007 5.79858Z" fill="#FFD200"/>
<path d="M22.4182 4.718L10.1956 10.7244L10.6026 11.5527L22.8253 5.54633L22.4182 4.718Z" fill="#24285B"/>
<path opacity="0.27" d="M22.4182 4.718L10.1956 10.7244L10.6026 11.5527L22.8253 5.54633L22.4182 4.718Z" fill="white"/>
</svg>
